<mxfile host="app.diagrams.net" modified="2024-05-05T07:07:33.447Z" agent="Mozilla/5.0 (Windows NT 10.0; Win64; x64) AppleWebKit/537.36 (KHTML, like Gecko) Chrome/124.0.0.0 Safari/537.36" version="23.1.6" etag="HQvclE3K5hQ9yHWUbU28" type="github">
  <diagram name="페이지-1" id="U9R3sK3ARbRm7QeGk1-g">
    <mxGraphModel>
      <root>
        <mxCell id="0" />
        <mxCell id="1" parent="0" />
      </root>
    </mxGraphModel>
  </diagram>
</mxfile>
